<?xml version="1.0" encoding="UTF-8"?><svg id="Livello_1" xmlns="http://www.w3.org/2000/svg" viewBox="0 0 1920 1080"><path d="M0,355.57c83.13,13.01,111.91-22.03,136.49-10.06,17,8.28,16.75,2.69,57.19,31.03,39.63,27.76,59.44,41.64,81.7,44.03,32.41,3.47,46.36-12.22,75.57,0,65.17,35.36,105.41-35.43,201.19,11.53,30.95,12.54,25.67,17.72,55.15,28.3,16.37,5.87,30.64,8.81,40.85,22.01,7.15,9.68,16.38,21.53,31.66,28.3,10.47,4.52,12.23,1.23,19.4,5.24,8.6,4.81,12.63,13.21,17.36,23.06,7.3,15.2,4.47,18.9,10.21,26.21,4.15,5.29,8.55,7.06,27.57,13.63,37.71,13.01,39.22,12.54,44.94,16.77,12.16,9.01,9.27,14.07,24.51,26.21,18.87,13.28,51.87,29.41,73.53,31.45,13.92,1.24,15.05-2.04,23.49,1.05,10.07,3.68,40.31-14.04,57.7-20.88,66.89-26.29,108.44,37.07,207.83,24.46,113.43-20.98,182.22-91.46,301.28-61.63,38.95,5.49,70.43,40.73,97.02,63.29,28.1,23.84,67.62-25.4,89.87-9.43,37.21,26.69,56.67,34.77,100.09,1.92,50.6-43.84,65.11-57.61,145.38-81.59v509.55H0c.12-248.08-.12-476.35,0-724.43Z" style="fill:#816169;"/></svg>