<?xml version="1.0" encoding="UTF-8"?><svg id="Livello_1" xmlns="http://www.w3.org/2000/svg" viewBox="0 0 1920 1080"><path d="M0,621.34c91.1-8.36,155.07,3.28,197.77,16.34,20.25,6.2,52.97,17.99,100.09,20.43,45.66,2.36,84.75-5.12,89.87-6.13,44.14-8.7,48.47-18.39,89.11-22.21,22.59-2.12,43.51-4.09,68.94,3.06,12.99,3.66,21.7,8.16,45.96,14.55,13.06,3.44,24.21,6.38,35.23,7.66,26.76,3.1,40.16-5.08,71.23-12.26,42.01-9.7,40.13.02,85.79-9.19,21.48-4.34,19.56-6.02,75.83-22.21,39.54-11.38,59.31-17.07,69.7-17.62,35.13-1.84,39.12,10.16,90.38,13.02,28.33,1.58,43.42,2.25,61.28-5.36,23.61-10.07,21.13-21.43,49.02-38.3,24.16-14.61,48.26-19.53,68.94-23.74,28.66-5.85,30.66-1.7,49.02-8.43,28.31-10.36,27.56-21.67,49.02-25.28,22.69-3.81,30.98,7.58,52.09,0,9.87-3.55,9.52-6.56,25.28-16.09,0,0,21.17-12.79,48.26-20.68,24.91-7.26,41.07-5.8,60.51-6.89,49.37-2.77,58.64-18.54,107.23-28.34,8.32-1.68,56.92-11.02,113.36,0,63.17,12.34,76.11,38.46,141.7,49.79,31.25,5.4,57.58,4.52,74.4,3.06v593.47H0v-458.66Z" style="fill:#ab6a6d;"/></svg>