<?xml version="1.0" encoding="UTF-8"?><svg id="Livello_1" xmlns="http://www.w3.org/2000/svg" viewBox="0 0 1920 1080"><path d="M0,719.38c52.3,26.58,126.76,55.97,219.21,67.4,99.04,12.25,177.6-1.19,198.6-5.11,7.57-1.41-.27-.11,108.81-25.53,58.7-13.68,73.17-16.9,97.02-26.55,15.99-6.47,35.17-15.89,73.53-34.72,48.3-23.72,46.5-24.22,55.15-26.55,39.41-10.63,75.4.22,105.19,9.19,32.76,9.87,39.9,18,87.83,31.66,25.38,7.24,37.8,9.07,52.09,6.13,14.56-3,17.86-8.23,46.98-19.4,21.56-8.27,32.34,6.59,40.85,7.77,16.68,2.3,18.9-5.75,46.98,8.57,8.31,4.24,19.09,9.74,31.66,12.26,15.51,3.1,31.7,1.25,67.4-13.28,55.41-22.54,54.41-33.52,82.72-37.79,26.25-3.95,47.73,2.38,67.4,8.17,7.48,2.2,37.62,11.47,70.47,35.74,14.03,10.37,15.91,14.13,38.81,34.72,18.59,16.71,46.37,40.33,59.23,49.02,47.33,31.97,129.26,21.57,183.83-9.19,55.89-31.51,58.45-70.5,133.79-109.28,21.34-10.98,40.06-17.6,52.45-21.45v418.83c-629.47,0-1266.74,1.57-1920,0,.8-125.96-.8-234.66,0-360.62Z" style="fill:#4f5c6e;"/></svg>